<?xml version="1.0" encoding="UTF-8"?>
<!DOCTYPE svg PUBLIC "-//W3C//DTD SVG 1.1//EN" "http://www.w3.org/Graphics/SVG/1.1/DTD/svg11.dtd">
<!-- Creator: CorelDRAW -->
<svg xmlns="http://www.w3.org/2000/svg" xml:space="preserve" width="203.2mm" height="46.736mm" version="1.1" style="shape-rendering:geometricPrecision; text-rendering:geometricPrecision; image-rendering:optimizeQuality; fill-rule:evenodd; clip-rule:evenodd"
viewBox="0 0 20320 4673.6"
 xmlns:xlink="http://www.w3.org/1999/xlink"
 xmlns:xodm="http://www.corel.com/coreldraw/odm/2003">
 <defs>
  <style type="text/css">
   <![CDATA[
    .str0 {stroke:#D19563;stroke-width:7.62;stroke-miterlimit:2.61313}
    .fil6 {fill:#2B2A29}
    .fil5 {fill:#FFED00}
    .fil4 {fill:#E5097F}
    .fil3 {fill:#00A0E3}
    .fil0 {fill:#FECC00;fill-rule:nonzero}
    .fil7 {fill:#F1A10E;fill-rule:nonzero}
    .fil2 {fill:#5F3023;fill-rule:nonzero}
    .fil1 {fill:url(#id0);fill-rule:nonzero}
   ]]>
  </style>
  <linearGradient id="id0" gradientUnits="objectBoundingBox" x1="51.2308%" y1="0%" x2="51.2257%" y2="154.941%">
   <stop offset="0" style="stop-opacity:1; stop-color:#F9B101"/>
   <stop offset="0.721569" style="stop-opacity:1; stop-color:#F09D0F"/>
   <stop offset="1" style="stop-opacity:1; stop-color:#E6881D"/>
  </linearGradient>
 </defs>
 <g id="Layer_x0020_1">
  <metadata id="CorelCorpID_0Corel-Layer"/>
  <g id="_2419651686432">
   <polygon class="fil0 str0" points="-0,69.03 1799.81,69.03 2551.19,69.03 2551.19,1165.92 1446.39,1165.92 1446.39,2087.79 2551.19,2087.79 2551.19,3178.85 3484.66,3178.85 3484.66,2087.79 4595.36,2087.79 4595.36,1165.92 3484.66,1165.92 3484.66,69.03 4293.85,69.03 6041.76,69.03 3972.04,4609.78 2106.05,4609.78 "/>
   <path class="fil1" d="M6385.04 57.24l1930.87 0c420.65,0 735.47,89.27 945.33,268.6 209.03,179.35 313.97,434.63 313.97,765.9 0,339.88 -114.58,606.13 -342.82,797.2 -228.22,191.87 -577.15,287.41 -1045.87,287.41l-636.64 0 0 1245.16 -1164.84 0 0 -3364.27zm1164.84 1437.79l285.92 0c225.66,0 383.95,-35.23 474.88,-104.94 90.96,-69.68 136.44,-158.96 136.44,-267.82 0,-105.72 -39.37,-194.99 -118.96,-268.6 -78.7,-73.61 -227.36,-110.41 -445.97,-110.41l-332.31 0 0 751.77zm2353.71 -1437.79l1159.59 0 0 2537.3 1815.45 0 0 826.97 -2975.04 0 0 -3364.27zm5533.4 0l1159.56 0 0 2004c0,198.12 -34.96,386.06 -104.03,562.26 -69.1,177 -177.57,331.27 -325.34,463.62 -147.81,132.35 -302.58,224.75 -464.34,278.79 -225.66,74.38 -496.74,111.99 -812.42,111.99 -182.79,0 -382.16,-11.74 -598.15,-34.46 -216.02,-22.71 -397.03,-68.13 -542.19,-136.27 -145.16,-68.14 -278.1,-164.46 -397.91,-289.76 -120.66,-125.28 -202.89,-254.51 -247.49,-387.64 -71.68,-213.78 -107.55,-403.29 -107.55,-568.53l0 -2004 1159.58 0 0 2051.78c0,183.24 56.85,326.54 169.67,429.13 113.67,103.37 271.08,155.06 472.21,155.06 198.51,0 355.07,-50.89 468.74,-152.71 112.79,-101.02 169.66,-245.11 169.66,-431.48l0 -2051.78zm1450.34 2251.46l1101.86 -61.86c23.62,159.76 72.59,281.92 146.04,364.92 119.81,135.47 290.35,203.61 512.48,203.61 165.26,0 292.94,-34.46 382.14,-104.14 90.05,-69.71 134.67,-150.37 134.67,-241.99 0,-86.93 -41.98,-165.23 -126.8,-234.14 -84.82,-68.92 -282.45,-133.16 -592.92,-195.02 -508.94,-101.79 -871,-238.07 -1087.85,-408 -218.64,-169.15 -327.96,-385.28 -327.96,-648.41 0,-172.28 55.97,-335.19 167.91,-488.68 111.96,-154.26 279.83,-274.87 504.58,-362.57 224.75,-87.7 532.58,-131.57 923.5,-131.57 480.08,0 845.64,79.88 1097.48,240.41 251.86,159.76 401.38,414.27 449.47,763.55l-1091.37 57.94c-28.85,-152.69 -90.05,-263.9 -182.77,-332.81 -93.54,-69.69 -222.11,-104.17 -385.63,-104.17 -134.67,0 -237,25.86 -305.22,76.76 -68.21,50.89 -102.32,113.56 -102.32,187.17 0,53.24 28,101.02 83.11,144.09 53.35,44.63 182.74,85.35 387.36,123.73 507.23,97.9 870.15,197.34 1088.76,297.59 219.52,100.24 379.54,223.97 479.23,372.76 99.71,147.99 149.54,314.03 149.54,498.05 0,215.35 -66.46,414.27 -199.4,596.74 -133.79,181.67 -319.17,320.3 -558.79,414.27 -238.73,93.97 -539.57,140.97 -903.34,140.97 -638.41,0 -1080.88,-110.44 -1326.61,-330.49 -245.75,-220.05 -384.78,-499.62 -417.15,-838.71z"/>
   <path class="fil2" d="M11713.14 4655.88l0 -865.42 216.32 0c54.47,0 96.74,2.72 126.58,8.19 30.05,5.44 56.61,14.6 79.88,27.46 23.25,12.68 44.76,30.21 64.72,52.82 19.78,22.42 35.29,48.52 46.34,78.52 10.86,29.84 16.49,63.55 16.49,101.15 0,57.09 -13.4,106.78 -40.14,149.09 -26.74,42.27 -60.67,72.48 -102.14,90.79 -41.5,18.31 -105.45,27.49 -191.73,27.49l-56.8 0 0 329.91 -159.52 0zm159.52 -479.58l51.19 0c67.26,0 114.18,-9.74 140.52,-29.44 26.18,-19.48 39.34,-49.08 39.34,-88.66 0,-25.14 -6.35,-47.16 -19.16,-65.65 -13,-18.71 -30.83,-31.98 -53.7,-39.96 -22.88,-7.98 -56.8,-12.09 -101.39,-12.09l-56.8 0 0 235.8zm752.58 479.58l0 -865.42 263.98 0c65.52,0 119.25,8.56 161.28,26.1 28.88,11.9 54.48,29.04 77.38,51.64 22.65,22.82 40.7,47.37 53.85,74.06 18.61,36.43 27.73,76.39 27.73,119.84 0,38.4 -6.96,74.65 -21.11,108.54 -14.36,33.92 -32.4,61.97 -54.28,84.21 -22.1,22.2 -45.56,39.55 -70.57,51.61 -24.79,12.28 -54.84,22.23 -89.57,30.21l233.99 319.21 -193.07 0 -227.74 -331.08 -2.35 0 0 331.08 -159.52 0zm159.52 -715.38l0 264.25 102.17 0c31.76,0 60.85,-6.03 87,-18.12 19.22,-9.16 35.1,-23.97 47.7,-44.63 12.41,-20.47 18.6,-43.45 18.6,-68.99 0,-25.14 -6.19,-48.33 -18.6,-69.76 -12.6,-21.25 -29.25,-37.02 -49.99,-47.35 -20.77,-10.33 -49.06,-15.4 -84.71,-15.4l-102.17 0zm794.03 715.38l0 -865.42 159.52 0 0 865.42 -159.52 0zm593 0l0 -865.42 181.25 0 355.92 629.03 2.3 0 0 -629.03 159.55 0 0 865.42 -177.75 0 -359.4 -629.25 -2.32 0 0 629.25 -159.55 0zm1204.43 0l0 -715.38 -159.52 0 0 -150.04 479.33 0 0 150.04 -160.69 0 0 715.38 -159.12 0zm1326.5 0l0 -865.42 216.32 0c54.47,0 96.74,2.72 126.58,8.19 30.05,5.44 56.61,14.6 79.88,27.46 23.25,12.68 44.76,30.21 64.72,52.82 19.78,22.42 35.29,48.52 46.34,78.52 10.86,29.84 16.49,63.55 16.49,101.15 0,57.09 -13.4,106.78 -40.14,149.09 -26.74,42.27 -60.67,72.48 -102.14,90.79 -41.5,18.31 -105.45,27.49 -191.73,27.49l-56.8 0 0 329.91 -159.52 0zm159.52 -479.58l51.19 0c67.26,0 114.18,-9.74 140.52,-29.44 26.18,-19.48 39.37,-49.08 39.37,-88.66 0,-25.14 -6.38,-47.16 -19.19,-65.65 -13,-18.71 -30.83,-31.98 -53.7,-39.96 -22.85,-7.98 -56.8,-12.09 -101.39,-12.09l-56.8 0 0 235.8zm539.52 479.58l358.44 -865.42 124.23 0 360.76 865.42 -176.2 0 -91.31 -223.34 -308.41 0 -92.08 223.34 -175.43 0zm518.54 -373.97l-97.68 -265.4 -2.35 0 -97.71 265.4 197.74 0zm1393.2 -244.37l-181.24 0c-32.94,-36.43 -67.45,-64.69 -103.91,-84.76 -36.24,-19.88 -77.15,-30 -122.69,-30 -47.69,0 -94.02,13.24 -138.78,39.37 -44.97,26.29 -80.25,63.12 -106.22,110.49 -26,47.35 -38.97,96.83 -38.97,148.28 0,45.22 8.73,86.53 26.16,124.13 17.45,37.42 38.78,68.6 64.16,93.55 25.41,24.93 52.34,44.22 80.65,58.08 37.58,18.12 76.95,27.27 118.24,27.27 82.39,0 153.54,-36.24 212.84,-108.94l185.12 0c-20.37,42.49 -41.5,76.97 -62.99,103.28 -28.32,34.7 -60.48,63.52 -96.53,86.53 -36.06,23.01 -73.69,40.14 -113.22,51.64 -39.74,11.51 -81.24,17.14 -124.85,17.14 -122.88,0 -228.51,-44.23 -316.72,-132.7 -88.18,-88.47 -132.4,-194.08 -132.4,-316.67 0,-67.41 12.81,-128.42 38,-183.16 25.38,-54.96 56.98,-100.57 94.59,-137.4 37.82,-36.62 78.3,-65.65 121.94,-87.11 60.48,-28.83 124.05,-43.24 190.72,-43.24 46.55,0 93.44,7.58 140.54,22.79 47.11,15.19 89.17,36.83 125.82,64.7 36.64,28.05 67.07,58.45 90.9,91.19 15.91,21.25 32.16,49.89 48.84,85.54zm389.13 618.34l0 -865.42 159.52 0 0 374.34 2.32 0 268.65 -374.34 186.88 0 -324.3 425.79 324.3 439.63 -186.88 0 -268.65 -380.19 -2.32 0 0 380.19 -159.52 0z"/>
   <rect class="fil3" x="6358.04" y="3850.18" width="5001.34" height="70.83"/>
   <rect class="fil4" x="6358.04" y="4079.78" width="5001.34" height="70.83"/>
   <rect class="fil5" x="6358.04" y="4309.36" width="5001.34" height="70.83"/>
   <rect class="fil6" x="6358.04" y="4538.95" width="5001.34" height="70.83"/>
   <polygon class="fil0 str0" points="-0,69.03 1799.81,69.03 2551.19,69.03 2551.19,1165.92 1446.39,1165.92 1446.39,2087.79 2551.19,2087.79 2551.19,3178.85 3484.66,3178.85 3484.66,2087.79 4595.36,2087.79 4595.36,1165.92 3484.66,1165.92 3484.66,69.03 4293.85,69.03 6041.76,69.03 3972.04,4609.78 2106.05,4609.78 "/>
   <path class="fil1" d="M6385.04 57.24l1930.87 0c420.65,0 735.47,89.27 945.33,268.6 209.03,179.35 313.97,434.63 313.97,765.9 0,339.88 -114.58,606.13 -342.82,797.2 -228.22,191.87 -577.15,287.41 -1045.87,287.41l-636.64 0 0 1245.16 -1164.84 0 0 -3364.27zm1164.84 1437.79l285.92 0c225.66,0 383.95,-35.23 474.88,-104.94 90.96,-69.68 136.44,-158.96 136.44,-267.82 0,-105.72 -39.37,-194.99 -118.96,-268.6 -78.7,-73.61 -227.36,-110.41 -445.97,-110.41l-332.31 0 0 751.77zm2353.71 -1437.79l1159.59 0 0 2537.3 1815.45 0 0 826.97 -2975.04 0 0 -3364.27zm5533.4 0l1159.56 0 0 2004c0,198.12 -34.96,386.06 -104.03,562.26 -69.1,177 -177.57,331.27 -325.34,463.62 -147.81,132.35 -302.58,224.75 -464.34,278.79 -225.66,74.38 -496.74,111.99 -812.42,111.99 -182.79,0 -382.16,-11.74 -598.15,-34.46 -216.02,-22.71 -397.03,-68.13 -542.19,-136.27 -145.16,-68.14 -278.1,-164.46 -397.91,-289.76 -120.66,-125.28 -202.89,-254.51 -247.49,-387.64 -71.68,-213.78 -107.55,-403.29 -107.55,-568.53l0 -2004 1159.58 0 0 2051.78c0,183.24 56.85,326.54 169.67,429.13 113.67,103.37 271.08,155.06 472.21,155.06 198.51,0 355.07,-50.89 468.74,-152.71 112.79,-101.02 169.66,-245.11 169.66,-431.48l0 -2051.78zm1450.34 2251.46l1101.86 -61.86c23.62,159.76 72.59,281.92 146.04,364.92 119.81,135.47 290.35,203.61 512.48,203.61 165.26,0 292.94,-34.46 382.14,-104.14 90.05,-69.71 134.67,-150.37 134.67,-241.99 0,-86.93 -41.98,-165.23 -126.8,-234.14 -84.82,-68.92 -282.45,-133.16 -592.92,-195.02 -508.94,-101.79 -871,-238.07 -1087.85,-408 -218.64,-169.15 -327.96,-385.28 -327.96,-648.41 0,-172.28 55.97,-335.19 167.91,-488.68 111.96,-154.26 279.83,-274.87 504.58,-362.57 224.75,-87.7 532.58,-131.57 923.5,-131.57 480.08,0 845.64,79.88 1097.48,240.41 251.86,159.76 401.38,414.27 449.47,763.55l-1091.37 57.94c-28.85,-152.69 -90.05,-263.9 -182.77,-332.81 -93.54,-69.69 -222.11,-104.17 -385.63,-104.17 -134.67,0 -237,25.86 -305.22,76.76 -68.21,50.89 -102.32,113.56 -102.32,187.17 0,53.24 28,101.02 83.11,144.09 53.35,44.63 182.74,85.35 387.36,123.73 507.23,97.9 870.15,197.34 1088.76,297.59 219.52,100.24 379.54,223.97 479.23,372.76 99.71,147.99 149.54,314.03 149.54,498.05 0,215.35 -66.46,414.27 -199.4,596.74 -133.79,181.67 -319.17,320.3 -558.79,414.27 -238.73,93.97 -539.57,140.97 -903.34,140.97 -638.41,0 -1080.88,-110.44 -1326.61,-330.49 -245.75,-220.05 -384.78,-499.62 -417.15,-838.71z"/>
   <path class="fil7" d="M11713.14 4655.88l0 -865.42 216.32 0c54.47,0 96.74,2.72 126.58,8.19 30.05,5.44 56.61,14.6 79.88,27.46 23.25,12.68 44.76,30.21 64.72,52.82 19.78,22.42 35.29,48.52 46.34,78.52 10.86,29.84 16.49,63.55 16.49,101.15 0,57.09 -13.4,106.78 -40.14,149.09 -26.74,42.27 -60.67,72.48 -102.14,90.79 -41.5,18.31 -105.45,27.49 -191.73,27.49l-56.8 0 0 329.91 -159.52 0zm159.52 -479.58l51.19 0c67.26,0 114.18,-9.74 140.52,-29.44 26.18,-19.48 39.34,-49.08 39.34,-88.66 0,-25.14 -6.35,-47.16 -19.16,-65.65 -13,-18.71 -30.83,-31.98 -53.7,-39.96 -22.88,-7.98 -56.8,-12.09 -101.39,-12.09l-56.8 0 0 235.8zm752.58 479.58l0 -865.42 263.98 0c65.52,0 119.25,8.56 161.28,26.1 28.88,11.9 54.48,29.04 77.38,51.64 22.65,22.82 40.7,47.37 53.85,74.06 18.61,36.43 27.73,76.39 27.73,119.84 0,38.4 -6.96,74.65 -21.11,108.54 -14.36,33.92 -32.4,61.97 -54.28,84.21 -22.1,22.2 -45.56,39.55 -70.57,51.61 -24.79,12.28 -54.84,22.23 -89.57,30.21l233.99 319.21 -193.07 0 -227.74 -331.08 -2.35 0 0 331.08 -159.52 0zm159.52 -715.38l0 264.25 102.17 0c31.76,0 60.85,-6.03 87,-18.12 19.22,-9.16 35.1,-23.97 47.7,-44.63 12.41,-20.47 18.6,-43.45 18.6,-68.99 0,-25.14 -6.19,-48.33 -18.6,-69.76 -12.6,-21.25 -29.25,-37.02 -49.99,-47.35 -20.77,-10.33 -49.06,-15.4 -84.71,-15.4l-102.17 0zm794.03 715.38l0 -865.42 159.52 0 0 865.42 -159.52 0zm593 0l0 -865.42 181.25 0 355.92 629.03 2.3 0 0 -629.03 159.55 0 0 865.42 -177.75 0 -359.4 -629.25 -2.32 0 0 629.25 -159.55 0zm1204.43 0l0 -715.38 -159.52 0 0 -150.04 479.33 0 0 150.04 -160.69 0 0 715.38 -159.12 0zm1326.5 0l0 -865.42 216.32 0c54.47,0 96.74,2.72 126.58,8.19 30.05,5.44 56.61,14.6 79.88,27.46 23.25,12.68 44.76,30.21 64.72,52.82 19.78,22.42 35.29,48.52 46.34,78.52 10.86,29.84 16.49,63.55 16.49,101.15 0,57.09 -13.4,106.78 -40.14,149.09 -26.74,42.27 -60.67,72.48 -102.14,90.79 -41.5,18.31 -105.45,27.49 -191.73,27.49l-56.8 0 0 329.91 -159.52 0zm159.52 -479.58l51.19 0c67.26,0 114.18,-9.74 140.52,-29.44 26.18,-19.48 39.37,-49.08 39.37,-88.66 0,-25.14 -6.38,-47.16 -19.19,-65.65 -13,-18.71 -30.83,-31.98 -53.7,-39.96 -22.85,-7.98 -56.8,-12.09 -101.39,-12.09l-56.8 0 0 235.8zm539.52 479.58l358.44 -865.42 124.23 0 360.76 865.42 -176.2 0 -91.31 -223.34 -308.41 0 -92.08 223.34 -175.43 0zm518.54 -373.97l-97.68 -265.4 -2.35 0 -97.71 265.4 197.74 0zm1393.2 -244.37l-181.24 0c-32.94,-36.43 -67.45,-64.69 -103.91,-84.76 -36.24,-19.88 -77.15,-30 -122.69,-30 -47.69,0 -94.02,13.24 -138.78,39.37 -44.97,26.29 -80.25,63.12 -106.22,110.49 -26,47.35 -38.97,96.83 -38.97,148.28 0,45.22 8.73,86.53 26.16,124.13 17.45,37.42 38.78,68.6 64.16,93.55 25.41,24.93 52.34,44.22 80.65,58.08 37.58,18.12 76.95,27.27 118.24,27.27 82.39,0 153.54,-36.24 212.84,-108.94l185.12 0c-20.37,42.49 -41.5,76.97 -62.99,103.28 -28.32,34.7 -60.48,63.52 -96.53,86.53 -36.06,23.01 -73.69,40.14 -113.22,51.64 -39.74,11.51 -81.24,17.14 -124.85,17.14 -122.88,0 -228.51,-44.23 -316.72,-132.7 -88.18,-88.47 -132.4,-194.08 -132.4,-316.67 0,-67.41 12.81,-128.42 38,-183.16 25.38,-54.96 56.98,-100.57 94.59,-137.4 37.82,-36.62 78.3,-65.65 121.94,-87.11 60.48,-28.83 124.05,-43.24 190.72,-43.24 46.55,0 93.44,7.58 140.54,22.79 47.11,15.19 89.17,36.83 125.82,64.7 36.64,28.05 67.07,58.45 90.9,91.19 15.91,21.25 32.16,49.89 48.84,85.54zm389.13 618.34l0 -865.42 159.52 0 0 374.34 2.32 0 268.65 -374.34 186.88 0 -324.3 425.79 324.3 439.63 -186.88 0 -268.65 -380.19 -2.32 0 0 380.19 -159.52 0z"/>
   <rect class="fil3" x="6358.04" y="3850.18" width="5001.34" height="70.83"/>
   <rect class="fil4" x="6358.04" y="4079.78" width="5001.34" height="70.83"/>
   <rect class="fil5" x="6358.04" y="4309.36" width="5001.34" height="70.83"/>
   <rect class="fil6" x="6358.04" y="4538.95" width="5001.34" height="70.83"/>
  </g>
 </g>
</svg>
