<?xml version="1.0" encoding="UTF-8"?>
<!DOCTYPE svg PUBLIC "-//W3C//DTD SVG 1.1//EN" "http://www.w3.org/Graphics/SVG/1.1/DTD/svg11.dtd">
<!-- Creator: CorelDRAW -->
<svg xmlns="http://www.w3.org/2000/svg" xml:space="preserve" width="228.676mm" height="51.6382mm" version="1.1" style="shape-rendering:geometricPrecision; text-rendering:geometricPrecision; image-rendering:optimizeQuality; fill-rule:evenodd; clip-rule:evenodd"
viewBox="0 0 22867.62 5163.82"
 xmlns:xlink="http://www.w3.org/1999/xlink"
 xmlns:xodm="http://www.corel.com/coreldraw/odm/2003">
 <defs>
  <style type="text/css">
   <![CDATA[
    .fil4 {fill:#2B2A29}
    .fil3 {fill:#FFED00}
    .fil2 {fill:#E5097F}
    .fil1 {fill:#00A0E3}
    .fil0 {fill:#177B88;fill-rule:nonzero}
   ]]>
  </style>
 </defs>
 <g id="Layer_x0020_1">
  <metadata id="CorelCorpID_0Corel-Layer"/>
  <g id="_2419057790992">
   <path class="fil0" d="M396.42 4629.34l0 105.28 324.78 0 0 130.62c0,42.06 -3.39,75.81 -10.19,101.05 -6.84,25.25 -19.28,44.96 -37.35,58.91 -18.18,14.07 -43.04,23.25 -74.8,27.45 -31.67,4.2 -72.92,6.31 -123.67,6.31l-108.73 0c-48.02,0 -88.09,-3.27 -120.31,-9.84 -32.19,-6.58 -58.44,-18.94 -78.88,-37.2 -20.38,-18.27 -34.85,-43.25 -43.42,-75.15 -8.6,-31.82 -12.97,-72.98 -12.97,-123.55l0 -338.32c0,-57.12 2.95,-103.67 8.91,-139.68 5.94,-36.04 17.63,-64.15 35.29,-84.24 17.69,-20.12 43.11,-33.75 76.16,-40.73 33.09,-7.01 77.24,-10.54 132.44,-10.54l142.81 0c41.62,0 76.13,2.12 103.28,6.31 27.13,4.23 48.9,11.96 65.31,23.16 16.27,11.26 27.62,26.66 33.93,46.35 6.31,19.63 9.49,44.43 9.49,74.4l0 60.35 115.48 0 0 -81.37c0,-42.18 -6.98,-78.19 -20.96,-108.15 -14.16,-29.96 -33.32,-54.28 -57.81,-72.98 -24.43,-18.76 -53.29,-32.31 -86.38,-40.73 -32.97,-8.4 -68.55,-12.62 -106.62,-12.62l-267.77 0c-43.54,0 -83.63,5.56 -120.25,16.85 -36.77,11.17 -68.26,30.88 -94.52,58.99 -26.26,28.02 -46.9,65.72 -61.83,113.02 -14.91,47.21 -22.41,106.44 -22.41,177.57l0 325.69c0,81.47 7.73,147 23.13,196.59 15.43,49.56 38.88,87.77 70.61,114.44 31.75,26.69 72.28,44.43 121.64,53.35 49.35,8.86 108.12,13.31 176.06,13.31l111.45 0c58.01,0 107.98,-4.45 150.16,-13.31 42.06,-8.92 77.26,-24.55 105.37,-47.04 28.14,-22.47 48.98,-53.59 62.53,-93.42 13.57,-39.72 20.35,-90.55 20.35,-152.3l0 -228.83 -440.31 0zm964.59 105.28l371.15 0c35.29,0 64.12,3.97 86.29,11.96 22.21,7.9 39.61,20.12 52.23,36.5 12.73,16.33 21.36,36.97 25.85,61.78 4.6,24.75 6.89,54.04 6.89,87.68l0 223.28 115.47 0 0 -279.41c0,-57.06 -13.11,-101.72 -39.37,-134.06 -26.37,-32.31 -68,-50.83 -125.05,-55.44l0 -2.77c40.81,-5.65 72.89,-16.19 96.51,-31.65 23.56,-15.4 41.43,-35.34 53.7,-59.69 12.19,-24.31 19.83,-52.42 23.04,-84.24 3.22,-31.81 4.81,-65.97 4.81,-102.5 0,-59.9 -6.14,-109.49 -18.41,-148.77 -12.22,-39.31 -31.15,-70.46 -57,-93.41 -25.85,-22.9 -58.65,-38.8 -98.6,-47.74 -39.86,-8.83 -87.48,-13.29 -142.77,-13.29l-470.27 0 0 1052.97 115.53 0 0 -421.2zm0 -105.28l0 -421.2 356.18 0c45.25,0 81.32,3.27 107.95,9.84 26.89,6.57 46.96,17.34 60.59,32.22 13.58,14.99 22.18,34.19 25.79,57.58 3.59,23.47 5.47,52.02 5.47,85.66 0,44.03 -2.05,80.7 -6.13,110.26 -4.17,29.44 -13.14,53.35 -27.21,71.62 -14.07,18.18 -34.19,31.55 -60.48,39.98 -26.25,8.39 -61.63,13.11 -105.98,14.04l-356.18 0zm1736.79 303.2l80.24 223.28 119.59 0 -380.56 -1052.97 -163.06 0 -371.15 1052.97 121.01 0 78.76 -223.28 515.17 0zm-32.57 -98.19l-451.33 0 224.32 -633.19 227.01 633.19zm590.87 321.47l115.53 0 0 -409.94 398.21 0c40.82,0 75.53,-5.87 104.13,-17.57 28.43,-11.69 51.99,-26.92 70.58,-45.62 18.64,-18.76 32.85,-40.07 42.87,-63.86 9.93,-23.91 17.14,-47.74 21.77,-71.62 4.49,-23.91 7.26,-46.81 8.1,-68.84 0.93,-21.97 1.31,-40.9 1.31,-56.83 0,-44.92 -3.36,-86.84 -10.16,-125.63 -6.72,-38.88 -19.28,-72.55 -37.35,-101.15 -18.12,-28.54 -43.13,-51 -74.74,-67.33 -31.73,-16.41 -72.05,-24.58 -121.01,-24.58l-519.24 0 0 1052.97zm468.99 -947.68c35.32,0 64.53,2.34 87.6,6.97 23.13,4.72 41.48,15.23 55.14,31.64 13.52,16.33 22.79,39.58 27.85,69.54 4.95,29.87 7.38,70.17 7.38,120.66 0,51.52 -4.95,91.07 -14.9,118.65 -9.93,27.62 -24.64,47.74 -44.15,60.36 -19.42,12.71 -43.77,19.95 -72.75,21.8 -29,1.85 -62.53,2.78 -100.54,2.78l-299.09 0 0 -432.4 353.46 0zm1543.61 -105.29l-115.5 0 0 463.29 -596.63 0 0 -463.29 -115.56 0 0 1052.97 115.56 0 0 -484.39 596.63 0 0 484.39 115.5 0 0 -1052.97zm578.71 0l-115.5 0 0 1052.97 115.5 0 0 -1052.97zm887.3 1061.39c50.71,0 97.87,-2.51 141.35,-7.75 43.42,-5.13 80.88,-17.08 112.09,-35.76 31.32,-18.75 55.75,-45.62 73.47,-80.7 17.69,-35.09 26.43,-83.06 26.43,-143.91l0 -98.3 -115.53 0 0 84.24c0,37.45 -3.79,67.82 -11.55,91.24 -7.62,23.39 -21.02,41.4 -40.04,54.1 -18.99,12.63 -43.94,21.05 -74.71,25.25 -30.92,4.2 -69.34,6.31 -115.54,6.31l-137.3 0c-48.05,0 -85.66,-6.8 -112.81,-20.38 -27.18,-13.55 -47.3,-34.65 -60.56,-63.2 -13.11,-28.51 -21.25,-64.78 -24.49,-108.81 -3.07,-43.92 -4.66,-95.94 -4.66,-155.86l0 -289.17c0,-47.7 5.61,-86.32 16.87,-115.88 11.38,-29.44 29.79,-51.9 55.15,-67.3 25.33,-15.49 58.65,-25.76 99.9,-30.89 41.2,-5.24 91.74,-7.76 151.49,-7.76l65.31 0c37.11,0 67.45,3.53 91.04,10.54 23.56,6.98 41.89,18.67 55.12,35.09 13.14,16.41 21.88,37.46 26.43,63.19 4.54,25.76 6.83,56.8 6.83,93.33l0 29.56 115.42 0 0 -33.76c0,-51.5 -4.43,-96.37 -13.47,-134.75 -9.14,-38.36 -24.31,-70 -45.53,-94.75 -21.36,-24.84 -49.91,-43.34 -85.63,-55.47 -35.9,-12.18 -80.36,-18.26 -133.92,-18.26l-95.06 0c-61.69,0 -118.6,3.3 -170.59,9.78 -52.23,6.54 -96.95,21.28 -134.7,44.26 -37.49,22.87 -66.96,56.4 -88.26,100.4 -21.37,44 -31.99,102.91 -31.99,176.9l0 407.13c0,105.81 26.02,187.44 78.19,244.99 52.1,57.58 124.82,86.35 218.15,86.35l163.1 0zm1076.09 -494.17c46.32,3.7 86.59,6.05 121.04,6.97 34.39,0.93 62.93,5.91 85.6,14.74 22.64,8.91 39.45,25.33 50.37,49.15 10.8,23.91 16.24,61.11 16.24,111.6 0,51.5 -4.26,91.3 -12.97,119.41 -8.45,28.02 -23.3,48.4 -44.09,61.02 -20.87,12.62 -49.12,20.09 -84.96,22.47 -35.81,2.34 -80.88,3.53 -135.28,3.53 -54.33,0 -98.25,-1.19 -131.86,-3.53 -33.46,-2.38 -59.72,-10.77 -78.82,-25.25 -18.94,-14.56 -31.65,-37.46 -38.07,-68.84 -6.2,-31.32 -9,-75.98 -8.14,-134.06l-115.5 0c-5.44,75.82 -1.3,136.15 12.24,181.11 13.52,44.92 36.25,78.85 67.98,101.81 31.75,22.9 72.05,37.63 120.91,44.2 49.01,6.54 106.07,9.84 171.26,9.84 64.38,0 120.95,-2.11 169.96,-6.31 48.86,-4.22 89.94,-16.15 123.03,-35.78 33.06,-19.68 57.87,-50.08 74.68,-91.3 16.77,-41.16 25.19,-99.24 25.19,-174.04 0,-71.18 -7.76,-125.72 -23.16,-163.59 -15.4,-37.89 -38.3,-65.74 -68.58,-83.57 -30.36,-17.77 -68.14,-28.77 -113.5,-33 -45.31,-4.2 -98.31,-8.16 -158.96,-11.96 -48.14,-0.92 -89.74,-2.08 -125.06,-3.44 -35.46,-1.42 -64.67,-7.5 -87.71,-18.27 -23.16,-10.77 -40.56,-28.77 -52.34,-54.01 -11.81,-25.33 -17.66,-63.2 -17.66,-113.77 0,-36.53 2.67,-66.24 8.14,-89.13 5.38,-22.99 17.16,-40.73 35.29,-53.36 18.17,-12.62 44.26,-21.3 78.24,-26.02 33.9,-4.6 79,-6.98 135.22,-6.98 54.28,0 97.82,1.45 130.44,4.23 32.68,2.75 57.99,10.25 76.17,22.46 18.12,12.1 30.3,31.12 36.64,56.89 6.37,25.67 10.4,61.51 12.28,107.37l115.44 0c2.78,-71.19 -4.43,-126.83 -21.71,-167.12 -17.16,-40.24 -42.18,-69.68 -74.74,-88.47 -32.63,-18.67 -72.11,-30.1 -118.2,-34.33 -46.23,-4.2 -97.03,-6.31 -152.27,-6.31 -62.53,0 -117.38,2.78 -164.54,8.42 -47.01,5.56 -86.24,18.67 -117.47,39.31 -31.29,20.62 -54.86,51.24 -70.66,91.97 -15.93,40.65 -23.83,96.11 -23.83,166.4 0,69.24 10.02,121.44 29.96,156.52 19.83,35.09 47.01,60.33 81.55,75.82 34.33,15.4 74.05,24.57 118.8,27.35 44.96,2.78 92.75,6.05 143.41,9.85zm1251.62 485.75l115.5 0 0 -409.94 398.24 0c40.82,0 75.41,-5.87 104.01,-17.57 28.52,-11.69 52.11,-26.92 70.7,-45.62 18.52,-18.76 32.85,-40.07 42.87,-63.86 9.93,-23.91 17.16,-47.74 21.71,-71.62 4.54,-23.91 7.32,-46.81 8.16,-68.84 0.93,-21.97 1.31,-40.9 1.31,-56.83 0,-44.92 -3.33,-86.84 -10.17,-125.63 -6.83,-38.88 -19.25,-72.55 -37.34,-101.15 -18.18,-28.54 -43.13,-51 -74.74,-67.33 -31.76,-16.41 -72.06,-24.58 -121.01,-24.58l-519.24 0 0 1052.97zm468.96 -947.68c35.35,0 64.5,2.34 87.63,6.97 23.13,4.72 41.51,15.23 55.14,31.64 13.46,16.33 22.79,39.58 27.85,69.54 4.92,29.87 7.38,70.17 7.38,120.66 0,51.52 -4.95,91.07 -14.91,118.65 -9.92,27.62 -24.72,47.74 -44.14,60.36 -19.46,12.71 -43.77,19.95 -72.81,21.8 -28.95,1.85 -62.47,2.78 -100.48,2.78l-299.12 0 0 -432.4 353.46 0zm828.7 526.48l371.15 0c35.23,0 64.09,3.97 86.27,11.96 22.17,7.9 39.6,20.12 52.34,36.5 12.68,16.33 21.27,36.97 25.76,61.78 4.6,24.75 6.86,54.04 6.86,87.68l0 223.28 115.56 0 0 -279.41c0,-57.06 -13.2,-101.72 -39.45,-134.06 -26.38,-32.31 -67.92,-50.83 -125.09,-55.44l0 -2.77c40.85,-5.65 72.92,-16.19 96.57,-31.65 23.54,-15.4 41.37,-35.34 53.64,-59.69 12.22,-24.31 19.89,-52.42 23.08,-84.24 3.18,-31.81 4.83,-65.97 4.83,-102.5 0,-59.9 -6.08,-109.49 -18.47,-148.77 -12.19,-39.31 -31.15,-70.46 -56.94,-93.41 -25.88,-22.9 -58.68,-38.8 -98.63,-47.74 -39.83,-8.83 -87.39,-13.29 -142.77,-13.29l-470.24 0 0 1052.97 115.53 0 0 -421.2zm0 -105.28l0 -421.2 356.16 0c45.27,0 81.31,3.27 107.94,9.84 26.87,6.57 46.99,17.34 60.62,32.22 13.58,14.99 22.15,34.19 25.85,57.58 3.54,23.47 5.39,52.02 5.39,85.66 0,44.03 -2.03,80.7 -6.17,110.26 -4.11,29.44 -13.14,53.35 -27.18,71.62 -14.04,18.18 -34.16,31.55 -60.47,39.98 -26.26,8.39 -61.61,13.11 -105.98,14.04l-356.16 0zm1227.07 -526.49l-115.54 0 0 1052.97 115.54 0 0 -1052.97zm1338.54 0l-115.53 0 0 961.75 -2.72 0 -570.92 -961.75 -190.28 0 0 1052.97 115.53 0 0 -954.66 2.78 0 572.22 954.66 188.92 0 0 -1052.97zm813.88 105.29l330.33 0 0 -105.29 -776.13 0 0 105.29 330.27 0 0 947.68 115.53 0 0 -947.68zm777.12 0l539.49 0 0 -105.29 -655.05 0 0 1052.97 655.05 0 0 -105.29 -539.49 0 0 -386.11 516.53 0 0 -98.28 -516.53 0 0 -358zm1069.27 526.48l371.12 0c35.29,0 64.15,3.97 86.26,11.96 22.24,7.9 39.63,20.12 52.34,36.5 12.74,16.33 21.34,36.97 25.77,61.78 4.66,24.75 6.91,54.04 6.91,87.68l0 223.28 115.57 0 0 -279.41c0,-57.06 -13.26,-101.72 -39.52,-134.06 -26.31,-32.31 -67.91,-50.83 -125.03,-55.44l0 -2.77c40.82,-5.65 72.87,-16.19 96.52,-31.65 23.59,-15.4 41.42,-35.34 53.7,-59.69 12.21,-24.31 19.86,-52.42 23.07,-84.24 3.21,-31.81 4.78,-65.97 4.78,-102.5 0,-59.9 -6.08,-109.49 -18.42,-148.77 -12.21,-39.31 -31.14,-70.46 -56.99,-93.41 -25.83,-22.9 -58.65,-38.8 -98.6,-47.74 -39.81,-8.83 -87.37,-13.29 -142.75,-13.29l-470.29 0 0 1052.97 115.56 0 0 -421.2zm0 -105.28l0 -421.2 356.18 0c45.25,0 81.26,3.27 107.98,9.84 26.83,6.57 46.95,17.34 60.59,32.22 13.52,14.99 22.08,34.19 25.79,57.58 3.53,23.47 5.41,52.02 5.41,85.66 0,44.03 -2.05,80.7 -6.13,110.26 -4.14,29.44 -13.12,53.35 -27.19,71.62 -14.07,18.18 -34.16,31.55 -60.53,39.98 -26.25,8.39 -61.6,13.11 -105.92,14.04l-356.18 0zm1436.39 40.73c46.32,3.7 86.61,6.05 120.94,6.97 34.51,0.93 63.03,5.91 85.66,14.74 22.67,8.91 39.37,25.33 50.34,49.15 10.86,23.91 16.33,61.11 16.33,111.6 0,51.5 -4.4,91.3 -12.97,119.41 -8.57,28.02 -23.3,48.4 -44.17,61.02 -20.9,12.62 -49.16,20.09 -85.02,22.47 -35.76,2.34 -80.77,3.53 -135.22,3.53 -54.28,0 -98.2,-1.19 -131.78,-3.53 -33.49,-2.38 -59.86,-10.77 -78.88,-25.25 -18.99,-14.56 -31.73,-37.46 -38.04,-68.84 -6.31,-31.32 -9.09,-75.98 -8.13,-134.06l-115.59 0c-5.47,75.82 -1.25,136.15 12.21,181.11 13.64,44.92 36.28,78.85 68.09,101.81 31.67,22.9 72.05,37.63 120.83,44.2 48.98,6.54 106.15,9.84 171.29,9.84 64.35,0 121.03,-2.11 170.01,-6.31 48.9,-4.22 89.92,-16.15 123,-35.78 33.06,-19.68 57.9,-50.08 74.66,-91.3 16.85,-41.16 25.24,-99.24 25.24,-174.04 0,-71.18 -7.73,-125.72 -23.13,-163.59 -15.4,-37.89 -38.32,-65.74 -68.66,-83.57 -30.4,-17.77 -68.2,-28.77 -113.45,-33 -45.28,-4.2 -98.37,-8.16 -159.07,-11.96 -48.03,-0.92 -89.68,-2.08 -125.03,-3.44 -35.35,-1.42 -64.64,-7.5 -87.71,-18.27 -23.13,-10.77 -40.59,-28.77 -52.28,-54.01 -11.76,-25.33 -17.66,-63.2 -17.66,-113.77 0,-36.53 2.72,-66.24 8.16,-89.13 5.41,-22.99 17.17,-40.73 35.26,-53.36 18.18,-12.62 44.2,-21.3 78.19,-26.02 33.99,-4.6 79,-6.98 135.22,-6.98 54.39,0 97.9,1.45 130.47,4.23 32.62,2.75 57.98,10.25 76.16,22.46 18.09,12.1 30.31,31.12 36.68,56.89 6.43,25.67 10.45,61.51 12.22,107.37l115.56 0c2.78,-71.19 -4.49,-126.83 -21.71,-167.12 -17.29,-40.24 -42.21,-69.68 -74.75,-88.47 -32.68,-18.67 -72.14,-30.1 -118.34,-34.33 -46.2,-4.2 -96.95,-6.31 -152.15,-6.31 -62.62,0 -117.42,2.78 -164.55,8.42 -47.12,5.56 -86.26,18.67 -117.53,39.31 -31.32,20.62 -54.79,51.24 -70.63,91.97 -15.92,40.65 -23.82,96.11 -23.82,166.4 0,69.24 9.93,121.44 29.9,156.52 19.95,35.09 47.1,60.33 81.55,75.82 34.39,15.4 74.05,24.57 118.89,27.35 44.84,2.78 92.78,6.05 143.41,9.85z"/>
   <path class="fil1" d="M18723.78 4299.09c182.32,0 330.13,147.87 330.13,330.16 0,182.37 -147.81,330.16 -330.13,330.16 -182.4,0 -330.18,-147.79 -330.18,-330.16 0,-182.29 147.78,-330.16 330.18,-330.16z"/>
   <path class="fil2" d="M19993.4 4299.09c182.4,0 330.15,147.87 330.15,330.16 0,182.37 -147.75,330.16 -330.15,330.16 -182.32,0 -330.13,-147.79 -330.13,-330.16 0,-182.29 147.81,-330.16 330.13,-330.16z"/>
   <path class="fil3" d="M21263.1 4299.09c182.35,0 330.13,147.87 330.13,330.16 0,182.37 -147.78,330.16 -330.13,330.16 -182.26,0 -330.07,-147.79 -330.07,-330.16 0,-182.29 147.81,-330.16 330.07,-330.16z"/>
   <path class="fil4" d="M22532.75 4299.09c182.4,0 330.18,147.87 330.18,330.16 0,182.37 -147.78,330.16 -330.18,330.16 -182.26,0 -330.13,-147.79 -330.13,-330.16 0,-182.29 147.87,-330.16 330.13,-330.16z"/>
   <path class="fil0" d="M1797.06 3252.7l539.08 0 1801.74 -3252.9 -494.23 0 -1577.02 2857.52 -1577.02 -2857.52 -494.27 0 1801.72 3252.9zm2756.7 0l440.3 0 0 -3252.9 -440.3 0 0 3252.9zm4742.75 -1451.18c0,974.95 -368.45,1091.75 -903.07,1091.75l-2233.05 0 0 -2534.05 2304.9 0c539.22,0 831.22,170.77 831.22,1109.79l0 332.51zm-3576.42 1451.18l2614.93 0c1105.22,0 1401.8,-431.31 1401.8,-1626.41 0,-1284.99 -296.58,-1626.49 -1388.31,-1626.49l-2628.42 0 0 3252.9zm4684.25 0l440.3 0 0 -3252.9 -440.3 0 0 3252.9zm2707.42 0l440.34 0 0 -1374.88 1864.53 -1878.02 -593.03 0 -1491.68 1509.6 -1491.66 -1509.6 -593.09 0 1864.59 1878.02 0 1374.88zm1997.44 0l498.72 0 404.41 -687.38 2605.9 0 404.38 687.38 498.67 0 -1931.96 -3252.9 -548.11 0 -1932.01 3252.9zm3297.89 -1046.83l-2183.64 0 1091.76 -1846.65 1091.88 1846.65zm1489.71 1046.83l2965.38 0 0 -359.43 -2525.08 0 0 -2893.47 -440.3 0 0 3252.9z"/>
  </g>
 </g>
</svg>
